<svg width="25" height="30" viewBox="0 0 25 30" fill="none" xmlns="http://www.w3.org/2000/svg">
<path d="M20.8633 15.936C20.8779 14.8076 21.1804 13.7013 21.7426 12.7199C22.3047 11.7385 23.1083 10.914 24.0784 10.323C23.4621 9.4508 22.649 8.73304 21.7038 8.2267C20.7585 7.72035 19.7071 7.43938 18.6331 7.40608C16.342 7.16779 14.1209 8.76448 12.9534 8.76448C11.7633 8.76448 9.96582 7.42974 8.03016 7.4692C6.77813 7.50928 5.55793 7.87003 4.48845 8.5163C3.41897 9.16257 2.53667 10.0723 1.92754 11.1569C-0.711052 15.6835 1.2571 22.3361 3.78469 25.9951C5.04931 27.7868 6.52727 29.7882 8.46118 29.7172C10.3536 29.6394 11.0604 28.5215 13.3447 28.5215C15.6079 28.5215 16.271 29.7172 18.2441 29.6721C20.2748 29.6394 21.5542 27.8724 22.7745 26.0638C23.6831 24.7871 24.3823 23.3761 24.8461 21.8831C23.6664 21.3887 22.6596 20.5611 21.9513 19.5035C21.243 18.446 20.8646 17.2052 20.8633 15.936Z" fill="white"/>
<path d="M17.1367 5.00011C18.2439 3.68311 18.7894 1.99033 18.6573 0.28125C16.9657 0.457289 15.4032 1.25835 14.2811 2.52482C13.7324 3.14352 13.3122 3.8633 13.0444 4.64302C12.7767 5.42273 12.6666 6.24709 12.7206 7.06897C13.5667 7.0776 14.4037 6.89589 15.1687 6.53753C15.9336 6.17917 16.6065 5.6535 17.1367 5.00011Z" fill="white"/>
</svg>
