<svg width="100" height="22" viewBox="0 0 100 22" fill="none" xmlns="http://www.w3.org/2000/svg">
<path d="M11.1782 13.0281H4.96799L3.4766 17.3914H0.846191L6.72844 1.24805H9.46135L15.3436 17.3914H12.6683L11.1782 13.0281ZM5.61119 11.0146H10.5338L8.10712 3.93313H8.03916L5.61119 11.0146Z" fill="white"/>
<path d="M28.0472 11.5079C28.0472 15.1655 26.0715 17.5154 23.09 17.5154C22.3347 17.5545 21.5836 17.3821 20.9226 17.0179C20.2616 16.6538 19.7175 16.1125 19.3526 15.4562H19.2961V21.2859H16.8579V5.62239H19.218V7.58001H19.2628C19.6446 6.9268 20.1979 6.38835 20.8639 6.02195C21.5299 5.65556 22.2837 5.47491 23.0451 5.49924C26.0599 5.49925 28.0472 7.86057 28.0472 11.5079ZM25.541 11.5079C25.541 9.12504 24.2982 7.55843 22.4019 7.55843C20.539 7.55843 19.2859 9.15804 19.2859 11.5079C19.2859 13.8794 20.539 15.4676 22.4019 15.4676C24.2982 15.4676 25.541 13.9124 25.541 11.5079H25.541Z" fill="white"/>
<path d="M41.122 11.5079C41.122 15.1655 39.1457 17.5154 36.1642 17.5154C35.4089 17.5545 34.6578 17.3821 33.9968 17.0179C33.3358 16.6538 32.7917 16.1125 32.4268 15.4562H32.3704V21.2859H29.9321V5.62239H32.2922V7.58001H32.337C32.7188 6.9268 33.2721 6.38835 33.9381 6.02195C34.6041 5.65556 35.3579 5.47491 36.1193 5.49924C39.1342 5.49925 41.122 7.86057 41.122 11.5079ZM38.6152 11.5079C38.6152 9.12504 37.3724 7.55843 35.4762 7.55843C33.6132 7.55843 32.3601 9.15804 32.3601 11.5079C32.3601 13.8794 33.6132 15.4676 35.4762 15.4676C37.3724 15.4676 38.6152 13.9124 38.6152 11.5079Z" fill="white"/>
<path d="M49.7611 12.8941C49.9417 14.495 51.5113 15.5461 53.6561 15.5461C55.7112 15.5461 57.1898 14.4949 57.1898 13.0515C57.1898 11.7984 56.2981 11.0482 54.1865 10.534L52.075 10.03C49.0833 9.31398 47.6944 7.92764 47.6944 5.67803C47.6944 2.89268 50.1442 0.979492 53.6215 0.979492C57.0655 0.979492 59.4256 2.89268 59.505 5.67803H57.0437C56.8964 4.06699 55.5523 3.09454 53.5882 3.09454C51.624 3.09454 50.28 4.07843 50.28 5.51046C50.28 6.65177 51.1384 7.32335 53.2384 7.83746L55.0334 8.27418C58.3762 9.05748 59.7638 10.388 59.7638 12.7493C59.7638 15.7695 57.3371 17.6611 53.4754 17.6611C49.8622 17.6611 47.4227 15.8139 47.2651 12.894L49.7611 12.8941Z" fill="white"/>
<path d="M65.0289 2.83789V5.62325H67.2878V7.53643H65.0289V14.025C65.0289 15.033 65.4812 15.5027 66.4742 15.5027C66.7424 15.4981 67.0101 15.4794 67.2763 15.4468V17.3486C66.8298 17.4312 66.3761 17.4687 65.922 17.4603C63.5171 17.4603 62.5792 16.5653 62.5792 14.2827V7.53643H60.8521V5.62325H62.5791V2.83789H65.0289Z" fill="white"/>
<path d="M68.5945 11.5078C68.5945 7.80459 70.7957 5.47754 74.2282 5.47754C77.6722 5.47754 79.8631 7.80454 79.8631 11.5078C79.8631 15.2212 77.6837 17.5381 74.2282 17.5381C70.7739 17.5381 68.5945 15.2212 68.5945 11.5078ZM77.3788 11.5078C77.3788 8.96748 76.2038 7.46816 74.2282 7.46816C72.2525 7.46816 71.0775 8.97891 71.0775 11.5078C71.0775 14.0583 72.2525 15.5462 74.2282 15.5462C76.2038 15.5462 77.3787 14.0583 77.3787 11.5078H77.3788Z" fill="white"/>
<path d="M81.8736 5.62228H84.199V7.62558H84.2554C84.4128 6.99991 84.7827 6.44698 85.303 6.05973C85.8233 5.67247 86.4623 5.47451 87.1126 5.49912C87.3936 5.49814 87.6738 5.52838 87.948 5.58926V7.84902C87.5933 7.74162 87.2232 7.69231 86.8525 7.70303C86.4983 7.68879 86.1451 7.75068 85.8174 7.88443C85.4896 8.01818 85.1949 8.22063 84.9535 8.47789C84.7121 8.73515 84.5298 9.04112 84.419 9.37479C84.3082 9.70846 84.2717 10.0619 84.3118 10.4109V17.3921H81.8735L81.8736 5.62228Z" fill="white"/>
<path d="M99.1898 13.9352C98.8618 16.0718 96.7618 17.5381 94.075 17.5381C90.6194 17.5381 88.4746 15.244 88.4746 11.5637C88.4746 7.87188 90.631 5.47754 93.9725 5.47754C97.2589 5.47754 99.3256 7.71445 99.3256 11.2831V12.1108H90.9359V12.2568C90.8972 12.69 90.9519 13.1264 91.0965 13.537C91.241 13.9475 91.4721 14.323 91.7743 14.6383C92.0765 14.9536 92.443 15.2016 92.8494 15.3658C93.2558 15.53 93.6928 15.6066 94.1314 15.5906C94.7075 15.6441 95.2858 15.5119 95.78 15.2136C96.2743 14.9153 96.6581 14.467 96.8745 13.9351L99.1898 13.9352ZM90.9474 10.4224H96.886C96.9079 10.0329 96.8483 9.64313 96.711 9.27756C96.5737 8.91199 96.3616 8.57849 96.088 8.29799C95.8144 8.0175 95.4853 7.79606 95.1212 7.64758C94.7572 7.4991 94.3661 7.42678 93.9725 7.43516C93.5754 7.43281 93.1818 7.5084 92.8144 7.65756C92.447 7.80673 92.113 8.02651 91.8318 8.30424C91.5506 8.58196 91.3276 8.91212 91.1758 9.27567C91.024 9.63922 90.9464 10.0289 90.9474 10.4224V10.4224Z" fill="white"/>
</svg>
