<svg width="31" height="30" viewBox="0 0 31 30" fill="none" xmlns="http://www.w3.org/2000/svg">
<g id="Arrows / Arrow Ledft 1 - 24px">
<path id="Icon" fillRule="evenodd" clipRule="evenodd" d="M11.5054 22.1259C11.0217 22.6184 10.2303 22.6255 9.73775 22.1418L3.37411 15.8918C3.13481 15.6568 3 15.3354 3 15C3 14.6646 3.13481 14.3432 3.37411 14.1082L9.73775 7.85819C10.2303 7.37445 11.0217 7.38158 11.5054 7.87411C11.9892 8.36665 11.9821 9.15807 11.4895 9.64181L7.30664 13.75L26.75 13.75C27.4404 13.75 28 14.3096 28 15C28 15.6904 27.4404 16.25 26.75 16.25L7.30664 16.25L11.4895 20.3582C11.9821 20.8419 11.9892 21.6334 11.5054 22.1259Z" fill="white"/>
</g>
</svg>
