<svg width="31" height="30" viewBox="0 0 31 30" fill="none" xmlns="http://www.w3.org/2000/svg">
<g id="Arrows / Arrow Ledft 1 - 24px">
<path id="Icon" fillRule="evenodd" clipRule="evenodd" d="M19.4946 7.87411C19.9783 7.38158 20.7697 7.37445 21.2622 7.85819L27.6259 14.1082C27.8652 14.3432 28 14.6646 28 15C28 15.3354 27.8652 15.6568 27.6259 15.8918L21.2622 22.1418C20.7697 22.6255 19.9783 22.6184 19.4946 22.1259C19.0108 21.6334 19.0179 20.8419 19.5105 20.3582L23.6934 16.25L4.25 16.25C3.55964 16.25 3 15.6904 3 15C3 14.3096 3.55964 13.75 4.25 13.75L23.6934 13.75L19.5105 9.64181C19.0179 9.15807 19.0108 8.36665 19.4946 7.87411Z" fill="black"/>
</g>
</svg>
