<svg xmlns="http://www.w3.org/2000/svg" width="11" height="14" viewBox="0 0 11 14" fill="none">
  <path d="M10.9972 12.1018L10.2103 3.07485C10.1934 2.87444 10.0276 2.7227 9.83367 2.7227H8.21487C8.19239 1.21677 6.9839 0 5.5 0C4.0161 0 2.80761 1.21677 2.78513 2.7227H1.16633C0.969596 2.7227 0.806592 2.87444 0.789729 3.07485L0.00281049 12.1018C0.00281049 12.1133 0 12.1247 0 12.1362C0 13.164 0.924629 14 2.06285 14H8.93715C10.0754 14 11 13.164 11 12.1362C11 12.1247 11 12.1133 10.9972 12.1018ZM5.5 0.773006C6.56515 0.773006 7.43357 1.64335 7.45606 2.7227H3.54394C3.56643 1.64335 4.43485 0.773006 5.5 0.773006ZM8.93715 13.227H2.06285C1.349 13.227 0.770056 12.746 0.758815 12.1534L1.51201 3.49857H2.78232V4.67239C2.78232 4.88712 2.95095 5.0589 3.16173 5.0589C3.37251 5.0589 3.54113 4.88712 3.54113 4.67239V3.49857H7.45606V4.67239C7.45606 4.88712 7.62468 5.0589 7.83546 5.0589C8.04624 5.0589 8.21487 4.88712 8.21487 4.67239V3.49857H9.48518L10.2412 12.1534C10.2299 12.746 9.64819 13.227 8.93715 13.227Z" fill="#FC7E06"/>
</svg>