<svg width="25" height="24" viewBox="0 0 25 24" fill="none" xmlns="http://www.w3.org/2000/svg">
<g id="cart-shopping">
<path id="Icon" d="M6.79977 5H21.5L19.5 12H7.87671M20.5 16H8.5L6.5 3H3.5M9.5 20C9.5 20.5523 9.05228 21 8.5 21C7.94772 21 7.5 20.5523 7.5 20C7.5 19.4477 7.94772 19 8.5 19C9.05228 19 9.5 19.4477 9.5 20ZM20.5 20C20.5 20.5523 20.0523 21 19.5 21C18.9477 21 18.5 20.5523 18.5 20C18.5 19.4477 18.9477 19 19.5 19C20.0523 19 20.5 19.4477 20.5 20Z" stroke="white" stroke-width="2" stroke-linecap="round" stroke-linejoin="round"/>
</g>
</svg>
