<svg width="92" height="9" viewBox="0 0 92 9" fill="none" xmlns="http://www.w3.org/2000/svg">
<path d="M3.55478 1.09767C4.06596 1.06132 4.5789 1.13784 5.05662 1.3217C5.53434 1.50557 5.96492 1.79219 6.31731 2.1609C6.66969 2.52962 6.9351 2.97122 7.09438 3.45388C7.25366 3.93653 7.30285 4.44819 7.23839 4.95196C7.23839 7.43009 5.88668 8.85456 3.55478 8.85456H0.727051V1.09767H3.55478ZM1.94295 7.75757H3.41896C3.78423 7.7792 4.14977 7.71986 4.48898 7.58386C4.82818 7.44786 5.13252 7.23863 5.37982 6.9714C5.62712 6.70416 5.81118 6.38565 5.91858 6.03905C6.02598 5.69244 6.05403 5.32647 6.00069 4.96777C6.05016 4.61049 6.01927 4.24678 5.91022 3.90272C5.80117 3.55866 5.61666 3.24275 5.36992 2.97764C5.12318 2.71253 4.82031 2.50478 4.48302 2.36928C4.14573 2.23377 3.78236 2.17386 3.41896 2.19384H1.94295V7.75757Z" fill="white"/>
<path d="M8.61206 5.92499C8.57491 5.54029 8.61933 5.15215 8.74245 4.78546C8.86557 4.41878 9.06467 4.08163 9.327 3.79565C9.58932 3.50968 9.90908 3.28118 10.2657 3.12482C10.6224 2.96846 11.0081 2.8877 11.3982 2.8877C11.7882 2.8877 12.1739 2.96846 12.5306 3.12482C12.8872 3.28118 13.207 3.50968 13.4693 3.79565C13.7316 4.08163 13.9307 4.41878 14.0539 4.78546C14.177 5.15215 14.2214 5.54029 14.1842 5.92499C14.2221 6.31008 14.1782 6.69875 14.0554 7.06603C13.9326 7.43332 13.7336 7.77108 13.4712 8.05762C13.2088 8.34416 12.8889 8.57313 12.5318 8.72983C12.1748 8.88652 11.7886 8.96747 11.3982 8.96747C11.0077 8.96747 10.6215 8.88652 10.2645 8.72983C9.90745 8.57313 9.58745 8.34416 9.32506 8.05762C9.06267 7.77108 8.86368 7.43332 8.74089 7.06603C8.61809 6.69875 8.57421 6.31008 8.61206 5.92499ZM12.985 5.92499C12.985 4.6561 12.4097 3.91406 11.4001 3.91406C10.3866 3.91406 9.81648 4.6561 9.81648 5.925C9.81648 7.20406 10.3866 7.94038 11.4001 7.94038C12.4097 7.94036 12.985 7.19896 12.985 5.92499H12.985Z" fill="white"/>
<path d="M21.591 8.85381H20.3815L19.1605 4.54248H19.0683L17.8523 8.85381H16.6544L15.0259 3H16.2085L17.2668 7.4668H17.3539L18.5686 3H19.6871L20.9017 7.4668H20.994L22.0472 3H23.2131L21.591 8.85381Z" fill="white"/>
<path d="M24.5825 3.0006H25.7049V3.93052H25.792C25.9398 3.59653 26.1891 3.31654 26.5051 3.1296C26.8212 2.94265 27.1882 2.85805 27.555 2.8876C27.8425 2.86618 28.1311 2.90913 28.3996 3.01325C28.668 3.11738 28.9094 3.28002 29.1057 3.48911C29.3021 3.69821 29.4485 3.94841 29.5341 4.22117C29.6196 4.49394 29.6421 4.78228 29.5999 5.06484V8.85434H28.434V5.35495C28.434 4.41423 28.0214 3.9464 27.1591 3.9464C26.964 3.93739 26.7691 3.9703 26.588 4.04288C26.4069 4.11546 26.2437 4.22599 26.1097 4.36689C25.9757 4.50779 25.8741 4.67573 25.8117 4.8592C25.7494 5.04267 25.7278 5.23733 25.7485 5.42984V8.85441H24.5825L24.5825 3.0006Z" fill="white"/>
<path d="M31.458 0.714844H32.624V8.8538H31.458V0.714844Z" fill="white"/>
<path d="M34.2451 5.9251C34.208 5.54038 34.2524 5.15222 34.3756 4.78551C34.4987 4.41881 34.6978 4.08165 34.9602 3.79567C35.2225 3.50969 35.5423 3.28119 35.899 3.12483C36.2557 2.96847 36.6415 2.8877 37.0315 2.8877C37.4215 2.8877 37.8073 2.96847 38.164 3.12483C38.5207 3.28119 38.8404 3.50969 39.1028 3.79567C39.3651 4.08165 39.5643 4.41881 39.6874 4.78551C39.8106 5.15222 39.855 5.54038 39.8179 5.9251C39.8557 6.3102 39.8118 6.69888 39.6889 7.06616C39.5661 7.43344 39.3671 7.7712 39.1047 8.05773C38.8423 8.34426 38.5222 8.57322 38.1652 8.72991C37.8082 8.8866 37.422 8.96754 37.0315 8.96754C36.641 8.96754 36.2548 8.8866 35.8978 8.72991C35.5407 8.57322 35.2207 8.34426 34.9583 8.05773C34.6959 7.7712 34.4969 7.43344 34.374 7.06616C34.2512 6.69888 34.2073 6.3102 34.2451 5.9251ZM38.618 5.9251C38.618 4.6562 38.0427 3.91417 37.0331 3.91417C36.0196 3.91417 35.4495 4.65621 35.4495 5.92511C35.4495 7.20417 36.0197 7.94049 37.0331 7.94049C38.0427 7.94047 38.618 7.19907 38.618 5.9251H38.618Z" fill="white"/>
<path d="M41.0452 7.19902C41.0452 6.1453 41.837 5.53784 43.2425 5.4515L44.8428 5.3601V4.85483C44.8428 4.23656 44.4302 3.88745 43.6333 3.88745C42.9824 3.88745 42.5314 4.12422 42.402 4.53808H41.2732C41.3924 3.53261 42.3469 2.8877 43.6871 2.8877C45.1683 2.8877 46.0036 3.6183 46.0036 4.85483V8.85449H44.8812V8.03183H44.789C44.6018 8.32692 44.3388 8.56749 44.0271 8.72896C43.7153 8.89044 43.3659 8.96703 43.0145 8.95093C42.7664 8.97649 42.5158 8.95028 42.2786 8.87397C42.0415 8.79766 41.8231 8.67296 41.6375 8.5079C41.452 8.34284 41.3034 8.14108 41.2014 7.91564C41.0994 7.69021 41.0461 7.44608 41.0452 7.19902ZM44.8428 6.69881V6.20942L43.4001 6.30082C42.5865 6.35477 42.2175 6.62899 42.2175 7.14505C42.2175 7.6719 42.6788 7.9785 43.313 7.9785C43.4989 7.99714 43.6866 7.97854 43.865 7.92382C44.0435 7.86911 44.209 7.77938 44.3517 7.65999C44.4944 7.5406 44.6115 7.39397 44.6958 7.22885C44.7802 7.06372 44.8302 6.88347 44.8428 6.69881Z" fill="white"/>
<path d="M47.5356 5.92439C47.5356 4.07468 48.4953 2.9029 49.988 2.9029C50.3572 2.88604 50.7236 2.97367 51.0444 3.15553C51.3653 3.33739 51.6272 3.60598 51.7997 3.9299H51.8868V0.714844H53.0527V8.8538H51.9355V7.92895H51.8432C51.6575 8.25068 51.3864 8.51593 51.0594 8.69596C50.7323 8.87598 50.3618 8.96393 49.988 8.95028C48.4851 8.95034 47.5356 7.77854 47.5356 5.92439ZM48.7401 5.92439C48.7401 7.16599 49.3307 7.91311 50.3186 7.91311C51.3013 7.91311 51.9086 7.15521 51.9086 5.92947C51.9086 4.70944 51.2949 3.94074 50.3186 3.94074C49.3371 3.94074 48.74 4.69293 48.74 5.92439H48.7401Z" fill="white"/>
<path d="M57.8772 5.92499C57.8401 5.54029 57.8845 5.15215 58.0076 4.78546C58.1307 4.41878 58.3298 4.08163 58.5921 3.79565C58.8545 3.50968 59.1742 3.28118 59.5309 3.12482C59.8875 2.96846 60.2733 2.8877 60.6633 2.8877C61.0533 2.8877 61.439 2.96846 61.7957 3.12482C62.1523 3.28118 62.4721 3.50968 62.7344 3.79565C62.9967 4.08163 63.1958 4.41878 63.319 4.78546C63.4421 5.15215 63.4865 5.54029 63.4494 5.92499C63.4872 6.31008 63.4433 6.69875 63.3205 7.06603C63.1977 7.43332 62.9987 7.77108 62.7364 8.05762C62.474 8.34416 62.154 8.57313 61.7969 8.72983C61.4399 8.88652 61.0538 8.96747 60.6633 8.96747C60.2728 8.96747 59.8866 8.88652 59.5296 8.72983C59.1726 8.57313 58.8526 8.34416 58.5902 8.05762C58.3278 7.77108 58.1288 7.43332 58.006 7.06603C57.8832 6.69875 57.8393 6.31008 57.8772 5.92499ZM62.2501 5.92499C62.2501 4.6561 61.6748 3.91406 60.6652 3.91406C59.6517 3.91406 59.0816 4.6561 59.0816 5.925C59.0816 7.20406 59.6518 7.94038 60.6652 7.94038C61.6748 7.94036 62.2501 7.19896 62.2501 5.92499Z" fill="white"/>
<path d="M65.0137 3.0006H66.1361V3.93052H66.2232C66.371 3.59653 66.6203 3.31654 66.9363 3.1296C67.2523 2.94265 67.6193 2.85805 67.9862 2.8876C68.2736 2.86618 68.5623 2.90913 68.8307 3.01325C69.0992 3.11738 69.3405 3.28002 69.5369 3.48911C69.7333 3.69821 69.8797 3.94841 69.9652 4.22117C70.0508 4.49394 70.0733 4.78228 70.0311 5.06484V8.85434H68.8651V5.35495C68.8651 4.41423 68.4526 3.9464 67.5903 3.9464C67.3951 3.93739 67.2003 3.9703 67.0191 4.04288C66.838 4.11546 66.6749 4.22599 66.5409 4.36689C66.4069 4.50779 66.3052 4.67573 66.2429 4.8592C66.1805 5.04267 66.1589 5.23733 66.1796 5.42984V8.85441H65.0137V3.0006Z" fill="white"/>
<path d="M76.6188 1.54297V3.02705H77.8988V4.00015H76.6188V7.01021C76.6188 7.62339 76.8737 7.89189 77.4541 7.89189C77.6027 7.89142 77.7512 7.88252 77.8988 7.86523V8.82753C77.6894 8.86465 77.4772 8.88439 77.2645 8.88656C75.9679 8.88656 75.4515 8.43461 75.4515 7.306V4.0001H74.5137V3.027H75.4515V1.54297H76.6188Z" fill="white"/>
<path d="M79.4919 0.714844H80.6476V3.94073H80.7399C80.8949 3.60361 81.151 3.32204 81.4734 3.13439C81.7957 2.94674 82.1686 2.86213 82.5413 2.8921C82.8272 2.87668 83.1131 2.92398 83.3785 3.03064C83.6439 3.13729 83.8822 3.30067 84.0766 3.50911C84.2709 3.71755 84.4164 3.96591 84.5027 4.23649C84.589 4.50706 84.614 4.79318 84.5759 5.07442V8.85382H83.4088V5.35942C83.4088 4.42441 82.9693 3.95087 82.1455 3.95087C81.9451 3.93458 81.7435 3.96188 81.5549 4.03085C81.3662 4.09982 81.1951 4.2088 81.0534 4.35016C80.9117 4.49151 80.8029 4.66184 80.7346 4.84922C80.6663 5.0366 80.6401 5.2365 80.6579 5.43495V8.85379H79.492L79.4919 0.714844Z" fill="white"/>
<path d="M91.3743 7.27207C91.2159 7.80707 90.8727 8.26985 90.4047 8.57944C89.9367 8.88904 89.3738 9.02573 88.8143 8.96562C88.4251 8.9758 88.0383 8.90193 87.6808 8.74914C87.3233 8.59635 87.0036 8.36831 86.7439 8.08083C86.4843 7.79335 86.2908 7.45333 86.1771 7.08436C86.0634 6.71539 86.032 6.32632 86.0853 5.94414C86.0334 5.56079 86.0653 5.17088 86.1788 4.80081C86.2923 4.43073 86.4847 4.08913 86.743 3.79914C87.0012 3.50914 87.3194 3.27752 87.6759 3.11995C88.0324 2.96238 88.4189 2.88254 88.8092 2.88584C90.4531 2.88584 91.4448 3.99864 91.4448 5.83684V6.23996H87.273V6.3047C87.2547 6.51952 87.282 6.73575 87.353 6.93952C87.424 7.1433 87.5372 7.33012 87.6853 7.48801C87.8335 7.6459 88.0133 7.77138 88.2132 7.8564C88.4131 7.94141 88.6288 7.98409 88.8464 7.9817C89.1253 8.01487 89.4078 7.96511 89.6581 7.83874C89.9084 7.71237 90.1151 7.51511 90.2519 7.27203L91.3743 7.27207ZM87.2729 5.38555H90.257C90.2717 5.18908 90.2447 4.99174 90.1779 4.80621C90.111 4.62067 90.0057 4.45105 89.8688 4.30823C89.7318 4.16542 89.5662 4.05257 89.3827 3.97694C89.1991 3.90132 89.0015 3.86458 88.8028 3.86909C88.6011 3.86658 88.401 3.9041 88.2142 3.97943C88.0274 4.05476 87.8577 4.16637 87.7152 4.3077C87.5726 4.44903 87.46 4.61721 87.3841 4.80232C87.3081 4.98743 87.2704 5.18574 87.273 5.38555H87.2729Z" fill="white"/>
</svg>
