<svg width="34" height="34" viewBox="0 0 34 34" fill="none" xmlns="http://www.w3.org/2000/svg">
<path d="M20.1167 4.07324C18.379 4.07324 16.7124 4.76355 15.4837 5.9923C14.2549 7.22106 13.5646 8.88761 13.5646 10.6253V14.2732H10.0584C9.88233 14.2732 9.73962 14.416 9.73962 14.592V19.4087C9.73962 19.5847 9.88233 19.7274 10.0584 19.7274H13.5646V29.6087C13.5646 29.7847 13.7073 29.9274 13.8834 29.9274H18.7C18.8761 29.9274 19.0188 29.7847 19.0188 29.6087V19.7274H22.5561C22.7024 19.7274 22.8299 19.6279 22.8653 19.486L24.0695 14.6693C24.1198 14.4681 23.9676 14.2732 23.7603 14.2732H19.0188V10.6253C19.0188 10.3341 19.1345 10.0549 19.3404 9.84898C19.5463 9.64308 19.8255 9.52741 20.1167 9.52741H23.8C23.9761 9.52741 24.1188 9.3847 24.1188 9.20866V4.39199C24.1188 4.21595 23.9761 4.07324 23.8 4.07324H20.1167Z" fill="#5D5D5D"/>
</svg>
