<svg width="52" height="9" viewBox="0 0 52 9" fill="none" xmlns="http://www.w3.org/2000/svg">
<path d="M8.23685 4.79616C8.25838 5.2729 8.18235 5.74903 8.01336 6.19587C7.84436 6.64271 7.58589 7.051 7.25352 7.39616C6.88105 7.77744 6.43157 8.07644 5.93451 8.27358C5.43744 8.47072 4.904 8.56157 4.36908 8.54016C3.83107 8.55205 3.29632 8.45435 2.79793 8.2531C2.29953 8.05185 1.84808 7.75134 1.47152 7.37016C0.707541 6.59532 0.279785 5.55476 0.279785 4.47116C0.279785 3.38756 0.707541 2.347 1.47152 1.57216C2.05562 1.00625 2.79537 0.624116 3.59783 0.473773C4.40028 0.323431 5.22966 0.411585 5.98174 0.727159C6.45453 0.919859 6.87623 1.21789 7.21418 1.59816L6.5193 2.28716C6.25893 1.97616 5.92902 1.72964 5.55576 1.56716C5.18251 1.40468 4.7762 1.33072 4.36908 1.35116C3.85515 1.35468 3.34992 1.48297 2.89754 1.7248C2.44516 1.96663 2.05941 2.31464 1.774 2.73842C1.48859 3.1622 1.31221 3.64885 1.26028 4.15583C1.20835 4.6628 1.28244 5.17467 1.47609 5.64669C1.66974 6.11872 1.97706 6.53653 2.37116 6.8636C2.76526 7.19068 3.23417 7.41706 3.73688 7.52296C4.2396 7.62887 4.76083 7.61107 5.25501 7.47112C5.74918 7.33117 6.20127 7.07334 6.57174 6.72016C6.97222 6.28479 7.20444 5.72298 7.2273 5.13416H4.36908V4.19816H8.18441C8.21426 4.39624 8.23177 4.59595 8.23685 4.79616Z" fill="white" stroke="white" stroke-width="0.30272" stroke-miterlimit="10"/>
<path d="M14.2409 1.54598H10.7009V4.01598H13.9262V4.95198H10.7009V7.42198H14.2409V8.38398H9.67822V0.583984H14.2409V1.54598Z" fill="white" stroke="white" stroke-width="0.30272" stroke-miterlimit="10"/>
<path d="M18.5413 8.38398H17.5318V1.54598H15.3291V0.583984H20.7964V1.54598H18.5413V8.38398Z" fill="white" stroke="white" stroke-width="0.30272" stroke-miterlimit="10"/>
<path d="M24.6519 8.38398V0.583984H25.6614V8.38398H24.6519Z" fill="white" stroke="white" stroke-width="0.30272" stroke-miterlimit="10"/>
<path d="M30.1448 8.38398H29.1353V1.54598H26.9326V0.583984H32.3344V1.54598H30.1448V8.38398Z" fill="white" stroke="white" stroke-width="0.30272" stroke-miterlimit="10"/>
<path d="M42.5746 7.37037C42.1959 7.74614 41.7463 8.04425 41.2514 8.24763C40.7564 8.45102 40.2259 8.5557 39.6902 8.5557C39.1544 8.5557 38.6239 8.45102 38.129 8.24763C37.6341 8.04425 37.1844 7.74614 36.8057 7.37037C36.0645 6.58913 35.6519 5.55695 35.6519 4.48437C35.6519 3.41178 36.0645 2.3796 36.8057 1.59837C37.1763 1.21201 37.6245 0.907069 38.1213 0.703288C38.6182 0.499506 39.1527 0.401417 39.6902 0.415367C40.2269 0.406948 40.7598 0.507562 41.2558 0.711014C41.7519 0.914466 42.2007 1.21645 42.5746 1.59837C42.9516 1.9786 43.248 2.42989 43.4461 2.92557C43.6443 3.42126 43.7403 3.95129 43.7284 4.48437C43.7456 5.01811 43.6521 5.54967 43.4536 6.0461C43.2551 6.54254 42.956 6.99327 42.5746 7.37037ZM37.5531 6.72037C37.8324 7.00101 38.1651 7.22384 38.532 7.37594C38.8989 7.52803 39.2925 7.60634 39.6902 7.60634C40.0878 7.60634 40.4815 7.52803 40.8484 7.37594C41.2153 7.22384 41.548 7.00101 41.8273 6.72037C42.393 6.11083 42.707 5.31273 42.707 4.48437C42.707 3.656 42.393 2.8579 41.8273 2.24837C41.548 1.96773 41.2153 1.74489 40.8484 1.5928C40.4815 1.44071 40.0878 1.36239 39.6902 1.36239C39.2925 1.36239 38.8989 1.44071 38.532 1.5928C38.1651 1.74489 37.8324 1.96773 37.5531 2.24837C36.9873 2.8579 36.6733 3.656 36.6733 4.48437C36.6733 5.31273 36.9873 6.11083 37.5531 6.72037Z" fill="white" stroke="white" stroke-width="0.30272" stroke-miterlimit="10"/>
<path d="M45.1572 8.38398V0.583984H46.3766L50.205 6.65498V5.14698V0.583984H51.2145V8.38398H50.1657L46.1668 2.02699V3.52198V8.38398H45.1572Z" fill="white" stroke="white" stroke-width="0.30272" stroke-miterlimit="10"/>
</svg>
