<svg width="112" height="23" viewBox="0 0 112 23" fill="none" xmlns="http://www.w3.org/2000/svg">
<path d="M36.0299 6.67216C34.9252 6.67474 33.8461 7.00205 32.9291 7.61271C32.012 8.22337 31.2982 9.08995 30.8779 10.1029C30.4575 11.1158 30.3496 12.2295 30.5676 13.3033C30.7857 14.3771 31.3199 15.3626 32.1029 16.1353C32.8858 16.908 33.8823 17.4331 34.9663 17.6443C36.0502 17.8554 37.173 17.7431 38.1926 17.3216C39.2121 16.9001 40.0828 16.1882 40.6943 15.2761C41.3059 14.3639 41.631 13.2925 41.6284 12.1972C41.639 11.4665 41.5013 10.7411 41.2234 10.0643C40.9456 9.38749 40.5331 8.77303 40.0108 8.25752C39.4884 7.74201 38.8668 7.33599 38.1829 7.06363C37.499 6.79127 36.7668 6.65814 36.0299 6.67216ZM36.0299 15.5512C35.3528 15.5981 34.6772 15.442 34.0907 15.1032C33.5043 14.7643 33.0343 14.2584 32.7417 13.6511C32.4491 13.0439 32.3475 12.3634 32.4502 11.6982C32.5528 11.0329 32.8549 10.4137 33.3172 9.92092C33.7795 9.42816 34.3806 9.0847 35.0423 8.93517C35.7041 8.78565 36.3959 8.83697 37.0279 9.08247C37.6599 9.32798 38.2027 9.75631 38.5859 10.3118C38.9691 10.8673 39.1749 11.5242 39.1766 12.1972C39.1977 12.6236 39.1325 13.0499 38.9848 13.4509C38.8371 13.8519 38.6099 14.2196 38.3167 14.5322C38.0234 14.8448 37.67 15.096 37.2772 15.271C36.8845 15.446 36.4604 15.5413 36.0299 15.5512ZM23.8104 6.67216C22.7057 6.67474 21.6266 7.00205 20.7095 7.61271C19.7925 8.22337 19.0786 9.08995 18.6583 10.1029C18.238 11.1158 18.13 12.2295 18.3481 13.3033C18.5661 14.3771 19.1004 15.3626 19.8833 16.1353C20.6663 16.908 21.6628 17.4331 22.7467 17.6443C23.8307 17.8554 24.9534 17.7431 25.973 17.3216C26.9926 16.9001 27.8632 16.1882 28.4748 15.2761C29.0864 14.3639 29.4114 13.2925 29.4088 12.1972C29.4195 11.4665 29.2818 10.7411 29.0039 10.0643C28.726 9.38749 28.3136 8.77303 27.7912 8.25752C27.2689 7.74201 26.6472 7.33599 25.9633 7.06363C25.2794 6.79127 24.5472 6.65814 23.8104 6.67216ZM23.8104 15.5512C23.1333 15.5981 22.4576 15.442 21.8712 15.1032C21.2848 14.7643 20.8147 14.2584 20.5221 13.6511C20.2295 13.0439 20.128 12.3634 20.2306 11.6982C20.3332 11.0329 20.6353 10.4137 21.0976 9.92092C21.5599 9.42816 22.161 9.0847 22.8228 8.93517C23.4846 8.78565 24.1764 8.83697 24.8084 9.08247C25.4403 9.32798 25.9832 9.75631 26.3664 10.3118C26.7496 10.8673 26.9554 11.5242 26.957 12.1972C26.9781 12.6236 26.9129 13.0499 26.7653 13.4509C26.6176 13.8519 26.3904 14.2196 26.0971 14.5322C25.8039 14.8448 25.4504 15.096 25.0577 15.271C24.6649 15.446 24.2408 15.5413 23.8104 15.5512ZM9.28325 8.37517V10.7152H14.9473C14.8584 11.8173 14.3964 12.8573 13.6361 13.6662C13.068 14.2401 12.3846 14.6894 11.6303 14.985C10.8759 15.2806 10.0674 15.4159 9.25703 15.3822C7.58794 15.3822 5.9872 14.7247 4.80697 13.5545C3.62674 12.3843 2.9637 10.7971 2.9637 9.14217C2.9637 7.48722 3.62674 5.90005 4.80697 4.72982C5.9872 3.55959 7.58794 2.90217 9.25703 2.90217C10.8572 2.87857 12.4022 3.48109 13.5575 4.57916L15.2226 2.92817C14.4411 2.16183 13.5133 1.55782 12.4935 1.15155C11.4736 0.745276 10.3822 0.544901 9.28325 0.562164C8.11767 0.517187 6.95493 0.70598 5.86469 1.11723C4.77446 1.52847 3.77917 2.15371 2.93847 2.95548C2.09777 3.75724 1.42896 4.71903 0.972112 5.78322C0.515266 6.84741 0.279785 7.99208 0.279785 9.14866C0.279785 10.3052 0.515266 11.4499 0.972112 12.5141C1.42896 13.5783 2.09777 14.5401 2.93847 15.3419C3.77917 16.1436 4.77446 16.7689 5.86469 17.1801C6.95493 17.5914 8.11767 17.7801 9.28325 17.7352C10.4048 17.7796 11.5231 17.5883 12.5648 17.1738C13.6065 16.7593 14.548 16.131 15.3275 15.3302C16.7043 13.8305 17.4379 11.8581 17.3728 9.83117C17.3775 9.34331 17.338 8.85602 17.2548 8.37517H9.28325ZM68.6897 10.1952C68.3478 9.19772 67.7083 8.32679 66.8561 7.69767C66.0039 7.06855 64.979 6.71093 63.9172 6.67216C63.2001 6.67077 62.4902 6.81525 61.8316 7.09666C61.1729 7.37807 60.5795 7.79043 60.088 8.30826C59.5965 8.82609 59.2173 9.43837 58.9738 10.1073C58.7304 10.7762 58.628 11.4874 58.6728 12.1972C58.6616 13.3839 59.0379 14.5423 59.7454 15.4995C60.453 16.4567 61.4539 17.1612 62.5986 17.5079C63.7433 17.8545 64.9704 17.8247 66.0966 17.4228C67.2228 17.0209 68.1876 16.2686 68.847 15.2782L66.9459 13.9782C66.6625 14.4465 66.2605 14.8333 65.7799 15.1001C65.2992 15.3669 64.7565 15.5045 64.2057 15.4992C63.6374 15.5224 63.0753 15.3747 62.5933 15.0754C62.1113 14.7761 61.7318 14.3392 61.5048 13.8222L68.965 10.7672L68.6897 10.1952ZM61.0852 12.0412C61.0587 11.6374 61.1136 11.2324 61.2469 10.8499C61.3801 10.4674 61.589 10.1151 61.8613 9.81364C62.1336 9.5122 62.4638 9.26764 62.8326 9.09431C63.2013 8.92097 63.6013 8.82233 64.009 8.80416C64.4315 8.7786 64.8521 8.87721 65.2183 9.08765C65.5845 9.29809 65.8799 9.611 66.0675 9.98716L61.0852 12.0412ZM55.0279 17.3972H57.4797V1.14717H55.0279V17.3972ZM51.0159 7.90717H50.9241C50.5579 7.49358 50.1059 7.16331 49.599 6.93894C49.0921 6.71457 48.5423 6.6014 47.9872 6.60717C46.5544 6.67606 45.2033 7.28891 44.2138 8.31872C43.2244 9.34853 42.6724 10.7163 42.6724 12.1387C42.6724 13.561 43.2244 14.9288 44.2138 15.9586C45.2033 16.9884 46.5544 17.6013 47.9872 17.6702C48.5431 17.6812 49.0946 17.5704 49.6023 17.3457C50.1099 17.121 50.5613 16.7879 50.9241 16.3702H51.0159V17.1632C51.0159 19.2822 49.8752 20.4132 48.0397 20.4132C47.4265 20.3998 46.8312 20.2061 46.3293 19.8566C45.8274 19.5071 45.4416 19.0175 45.2208 18.4502L43.0968 19.3212C43.4895 20.2991 44.1722 21.1358 45.0548 21.7208C45.9374 22.3057 46.9782 22.6113 48.0397 22.5972C50.911 22.5972 53.2841 20.9202 53.2841 16.8382V6.99717H51.0159V7.90717ZM48.197 15.5512C47.338 15.4981 46.5317 15.1223 45.9423 14.5003C45.3529 13.8784 45.0249 13.0571 45.0249 12.2037C45.0249 11.3503 45.3529 10.5289 45.9423 9.90701C46.5317 9.28506 47.338 8.90927 48.197 8.85616C48.6169 8.87413 49.0288 8.97565 49.4083 9.15469C49.7878 9.33373 50.1271 9.58663 50.406 9.89834C50.6849 10.2101 50.8977 10.5742 51.0318 10.9691C51.1658 11.3641 51.2184 11.7817 51.1864 12.1972C51.2221 12.6141 51.1722 13.0338 51.0397 13.4311C50.9072 13.8283 50.6948 14.1948 50.4154 14.5083C50.1359 14.8218 49.7953 15.0759 49.414 15.2551C49.0327 15.4344 48.6187 15.5351 48.197 15.5512ZM80.175 1.14717H74.3012V17.3972H76.753V11.2352H80.175C80.8738 11.2849 81.5754 11.1914 82.2361 10.9605C82.8968 10.7296 83.5025 10.3662 84.0153 9.89291C84.5281 9.41966 84.9371 8.84673 85.2167 8.20985C85.4964 7.57297 85.6407 6.88579 85.6407 6.19116C85.6407 5.49654 85.4964 4.80936 85.2167 4.17248C84.9371 3.5356 84.5281 2.96267 84.0153 2.48942C83.5025 2.01618 82.8968 1.65276 82.2361 1.42182C81.5754 1.19089 80.8738 1.09739 80.175 1.14717ZM80.175 8.94716H76.753V3.40916H80.2275C80.5959 3.40916 80.9608 3.48112 81.3012 3.62093C81.6416 3.76074 81.9509 3.96566 82.2114 4.22399C82.472 4.48233 82.6787 4.78901 82.8197 5.12654C82.9607 5.46407 83.0332 5.82583 83.0332 6.19116C83.0332 6.5565 82.9607 6.91826 82.8197 7.25579C82.6787 7.59332 82.472 7.9 82.2114 8.15833C81.9509 8.41667 81.6416 8.62159 81.3012 8.7614C80.9608 8.90121 80.5959 8.97317 80.2275 8.97317L80.175 8.94716ZM95.3052 6.62016C94.4124 6.56558 93.523 6.77168 92.747 7.21299C91.971 7.65429 91.3425 8.31144 90.9392 9.10316L93.1026 10.0002C93.3212 9.60939 93.6492 9.28973 94.0471 9.0798C94.4449 8.86987 94.8956 8.77866 95.3446 8.81717C95.6558 8.78113 95.9712 8.8069 96.2723 8.89299C96.5733 8.97908 96.8541 9.12376 97.0982 9.31859C97.3423 9.51342 97.5448 9.75449 97.694 10.0278C97.8431 10.301 97.9358 10.601 97.9668 10.9102V11.0662C97.1784 10.6553 96.3008 10.4411 95.4101 10.4422C93.0763 10.4422 90.6901 11.7422 90.6901 14.1082C90.7132 14.6111 90.838 15.1042 91.057 15.5584C91.2761 16.0125 91.585 16.4184 91.9653 16.7519C92.3457 17.0853 92.7898 17.3396 93.2712 17.4996C93.7526 17.6596 94.2615 17.722 94.7677 17.6832C95.3829 17.7169 95.9962 17.5878 96.5445 17.3091C97.0928 17.0304 97.5566 16.6121 97.8881 16.0972H97.9668V17.3972H100.327V11.1442C100.327 8.29716 98.1503 6.64616 95.3577 6.64616L95.3052 6.62016ZM95.0037 15.5252C94.2039 15.5252 93.0895 15.1222 93.0895 14.1472C93.0895 12.8472 94.4792 12.4052 95.7117 12.4052C96.4905 12.3861 97.2603 12.5747 97.9406 12.9512C97.8582 13.6572 97.5206 14.3096 96.9903 14.7877C96.4599 15.2658 95.7728 15.537 95.0561 15.5512L95.0037 15.5252ZM108.928 6.99717L106.122 14.0432H106.043L103.133 6.99717H100.51L104.876 16.8512L102.385 22.3242H104.942L111.655 6.99717H108.928ZM86.901 17.3972H89.3397V1.14717H86.901V17.3972Z" fill="white"/>
</svg>
