<svg width="31" height="34" viewBox="0 0 31 34" fill="none" xmlns="http://www.w3.org/2000/svg">
<path d="M0.621862 0.799986C0.189811 1.30649 -0.0306412 1.95759 0.00563844 2.61999V31.376C-0.0389735 32.0395 0.1825 32.6936 0.621862 33.196L0.71364 33.3L16.9583 17.193V16.803L0.71364 0.708984L0.621862 0.799986Z" fill="url(#paint0_linear_48_865)"/>
<path d="M22.334 22.5626L16.9585 17.1936V16.8036L22.334 11.4346L22.452 11.5126L28.8896 15.1266C30.7252 16.1536 30.7252 17.8436 28.8896 18.8836L22.4783 22.4976L22.334 22.5626Z" fill="url(#paint1_linear_48_865)"/>
<path d="M22.4914 22.484L16.9585 16.998L0.62207 33.196C0.992557 33.523 1.46677 33.7111 1.96249 33.7278C2.4582 33.7444 2.94415 33.5885 3.33607 33.287L22.4914 22.484Z" fill="url(#paint2_linear_48_865)"/>
<path d="M22.4914 11.5124L3.33607 0.722445C2.9467 0.416834 2.46113 0.257121 1.96474 0.271387C1.46835 0.285653 0.992931 0.472987 0.62207 0.800447L16.9585 16.9984L22.4914 11.5124Z" fill="url(#paint3_linear_48_865)"/>
<path opacity="0.2" d="M22.3341 22.3672L3.33607 33.0922C2.9584 33.3748 2.49812 33.5277 2.02496 33.5277C1.5518 33.5277 1.09152 33.3748 0.713848 33.0922L0.62207 33.1832L0.713848 33.2872C1.09152 33.5698 1.5518 33.7227 2.02496 33.7227C2.49812 33.7227 2.9584 33.5698 3.33607 33.2872L22.4914 22.4842L22.3341 22.3672Z" fill="white"/>
<path opacity="0.12" d="M0.62201 33.0137C0.200873 32.498 -0.00551311 31.8423 0.0451195 31.1807V31.3757C0.000507575 32.0392 0.221979 32.6933 0.661341 33.1957L0.753121 33.1047L0.62201 33.0137Z" fill="white"/>
<path opacity="0.12" d="M28.89 18.688L22.3345 22.367L22.4525 22.484L28.89 18.87C29.27 18.7107 29.5997 18.4528 29.8442 18.1233C30.0888 17.7939 30.2393 17.4051 30.2798 16.998C30.1978 17.368 30.0294 17.7137 29.788 18.0072C29.5466 18.3007 29.239 18.534 28.89 18.688Z" fill="white"/>
<path opacity="0.25" d="M3.33608 0.903727L28.8896 15.3077C29.2386 15.4618 29.5462 15.695 29.7876 15.9886C30.029 16.2821 30.1974 16.6278 30.2794 16.9977C30.2389 16.5906 30.0884 16.2019 29.8439 15.8724C29.5993 15.543 29.2696 15.285 28.8896 15.1257L3.33608 0.721725C1.51364 -0.318275 0.00585938 0.539726 0.00585938 2.61973V2.81473C0.0451927 0.734726 1.51364 -0.123273 3.33608 0.903727Z" fill="#162120"/>
<defs>
<linearGradient id="paint0_linear_48_865" x1="15.5161" y1="2.32098" x2="-6.29713" y2="24.3206" gradientUnits="userSpaceOnUse">
<stop stop-color="#00A0FF"/>
<stop offset="0.01" stop-color="#00A1FF"/>
<stop offset="0.26" stop-color="#00BEFF"/>
<stop offset="0.51" stop-color="#00D2FF"/>
<stop offset="0.76" stop-color="#00DFFF"/>
<stop offset="1" stop-color="#00E3FF"/>
</linearGradient>
<linearGradient id="paint1_linear_48_865" x1="31.2889" y1="16.9986" x2="-0.426832" y2="16.9986" gradientUnits="userSpaceOnUse">
<stop stop-color="#FFE000"/>
<stop offset="0.41" stop-color="#FFBD00"/>
<stop offset="0.78" stop-color="#FFA500"/>
<stop offset="1" stop-color="#FF9C00"/>
</linearGradient>
<linearGradient id="paint2_linear_48_865" x1="19.489" y1="19.988" x2="-10.0981" y2="49.8149" gradientUnits="userSpaceOnUse">
<stop stop-color="#FF3A44"/>
<stop offset="1" stop-color="#C31162"/>
</linearGradient>
<linearGradient id="paint3_linear_48_865" x1="-3.49482" y1="-8.76755" x2="9.71271" y2="4.55285" gradientUnits="userSpaceOnUse">
<stop stop-color="#32A071"/>
<stop offset="0.07" stop-color="#2DA771"/>
<stop offset="0.48" stop-color="#15CF74"/>
<stop offset="0.8" stop-color="#06E775"/>
<stop offset="1" stop-color="#00F076"/>
</linearGradient>
</defs>
</svg>
