<svg width="34" height="34" viewBox="0 0 34 34" fill="none" xmlns="http://www.w3.org/2000/svg">
<path d="M17 12.3959C14.4572 12.3959 12.3958 14.4573 12.3958 17.0001C12.3958 19.5429 14.4572 21.6043 17 21.6043C19.5428 21.6043 21.6042 19.5429 21.6042 17.0001C21.6042 14.4573 19.5428 12.3959 17 12.3959Z" fill="#5D5D5D"/>
<path fillRule="evenodd" clipRule="evenodd" d="M9.59019 4.36552C14.475 3.81957 19.525 3.81957 24.4099 4.36552C27.0993 4.6661 29.2685 6.78512 29.5841 9.48394C30.1682 14.4777 30.1682 19.5225 29.5841 24.5163C29.2685 27.2151 27.0993 29.3341 24.4099 29.6347C19.525 30.1806 14.475 30.1806 9.59019 29.6347C6.9008 29.3341 4.73161 27.2151 4.41595 24.5163C3.83189 19.5225 3.83189 14.4777 4.41595 9.48394C4.73161 6.78512 6.9008 4.6661 9.59019 4.36552ZM24.0833 8.50011C23.3009 8.50011 22.6667 9.13437 22.6667 9.91677C22.6667 10.6992 23.3009 11.3334 24.0833 11.3334C24.8658 11.3334 25.5 10.6992 25.5 9.91677C25.5 9.13437 24.8658 8.50011 24.0833 8.50011ZM10.2708 17.0001C10.2708 13.2837 13.2836 10.2709 17 10.2709C20.7164 10.2709 23.7292 13.2837 23.7292 17.0001C23.7292 20.7165 20.7164 23.7293 17 23.7293C13.2836 23.7293 10.2708 20.7165 10.2708 17.0001Z" fill="#5D5D5D"/>
</svg>
