<svg width="34" height="34" viewBox="0 0 34 34" fill="none" xmlns="http://www.w3.org/2000/svg">
<path d="M6.72917 2.65625C5.06656 2.65625 3.71875 4.00406 3.71875 5.66667C3.71875 7.32927 5.06656 8.67708 6.72917 8.67708C8.39177 8.67708 9.73958 7.32927 9.73958 5.66667C9.73958 4.00406 8.39177 2.65625 6.72917 2.65625Z" fill="#5D5D5D"/>
<path d="M3.89583 11.1562C3.79803 11.1562 3.71875 11.2355 3.71875 11.3333V29.75C3.71875 29.8478 3.79803 29.9271 3.89583 29.9271H9.5625C9.6603 29.9271 9.73958 29.8478 9.73958 29.75V11.3333C9.73958 11.2355 9.6603 11.1562 9.5625 11.1562H3.89583Z" fill="#5D5D5D"/>
<path d="M13.1042 11.1562C13.0064 11.1562 12.9271 11.2355 12.9271 11.3333V29.75C12.9271 29.8478 13.0064 29.9271 13.1042 29.9271H18.7708C18.8686 29.9271 18.9479 29.8478 18.9479 29.75V19.8333C18.9479 19.1289 19.2278 18.4532 19.7259 17.9551C20.2241 17.4569 20.8997 17.1771 21.6042 17.1771C22.3086 17.1771 22.9843 17.4569 23.4824 17.9551C23.9806 18.4532 24.2604 19.1289 24.2604 19.8333V29.75C24.2604 29.8478 24.3397 29.9271 24.4375 29.9271H30.1042C30.202 29.9271 30.2812 29.8478 30.2812 29.75V17.5387C30.2812 14.1008 27.2912 11.4112 23.8706 11.7222C22.8157 11.8181 21.7727 12.0804 20.7988 12.4978L18.9479 13.291V11.3333C18.9479 11.2355 18.8686 11.1562 18.7708 11.1562H13.1042Z" fill="#5D5D5D"/>
</svg>
