<svg width="25" height="24" viewBox="0 0 25 24" fill="none" xmlns="http://www.w3.org/2000/svg">
<path fillRule="evenodd" clipRule="evenodd" d="M8.5 4C8.5 3.44772 8.94772 3 9.5 3H15.5C16.0523 3 16.5 3.44772 16.5 4C16.5 4.55228 16.0523 5 15.5 5H9.5C8.94772 5 8.5 4.55228 8.5 4ZM17.5678 19.1534C17.4876 20.1954 16.6187 21 15.5736 21L9.42571 21C8.38064 21 7.51175 20.1954 7.4316 19.1534L6.58545 8.15339C6.58149 8.1019 6.57951 8.05075 6.57944 8H5.5C4.94772 8 4.5 7.55228 4.5 7C4.5 6.44772 4.94772 6 5.5 6H8.57956H19.5C20.0523 6 20.5 6.44772 20.5 7C20.5 7.55228 20.0523 8 19.5 8H18.4199C18.4199 8.05075 18.4179 8.1019 18.4139 8.15339L17.5678 19.1534ZM8.57956 8L9.42571 19H15.5736L16.4198 8H8.57956Z" fill="#918EA5"/>
</svg>
