<svg width="34" height="34" viewBox="0 0 34 34" fill="none" xmlns="http://www.w3.org/2000/svg">
<path d="M30.8972 8.82225C30.9793 8.70782 30.858 8.56008 30.7267 8.61098C29.7935 8.97269 28.8182 9.21674 27.8234 9.33701C28.9311 8.67525 29.7859 7.66789 30.2598 6.47525C30.3081 6.35375 30.1755 6.24526 30.061 6.30846C29.0315 6.87702 27.9212 7.28643 26.7678 7.52222C26.7195 7.53209 26.6698 7.51565 26.6359 7.47989C25.7703 6.5666 24.631 5.95852 23.3889 5.74838C22.1208 5.53384 20.8173 5.74627 19.6829 6.35236C18.5485 6.95845 17.6474 7.92393 17.1208 9.09736C16.6201 10.2131 16.485 11.4568 16.732 12.6512C16.7511 12.7439 16.6786 12.8314 16.5841 12.8255C14.3401 12.6861 12.1475 12.0893 10.1415 11.0708C8.14055 10.055 6.36868 8.64175 4.93378 6.91833C4.8701 6.84184 4.7494 6.85174 4.703 6.93979C4.25651 7.78705 4.02274 8.73139 4.02337 9.69118C4.02156 10.6466 4.25601 11.5875 4.70586 12.4304C5.15571 13.2732 5.80698 13.9918 6.60171 14.522C5.7589 14.4991 4.93252 14.2907 4.18097 13.9129C4.08412 13.8643 3.96794 13.9336 3.97298 14.0419C4.03159 15.3016 4.49406 16.5663 5.29457 17.5366C6.14644 18.5692 7.32882 19.2758 8.64171 19.537C8.13632 19.6908 7.61161 19.7719 7.08337 19.7778C6.79587 19.7745 6.50894 19.7533 6.22421 19.7143C6.11865 19.6999 6.03244 19.8002 6.0694 19.9001C6.46099 20.9591 7.15279 21.8831 8.0624 22.5576C9.03487 23.2787 10.2079 23.6787 11.4184 23.702C9.37441 25.3103 6.85087 26.1881 4.25004 26.1953C3.98279 26.1962 3.71567 26.1876 3.44917 26.1694C3.29899 26.1592 3.22992 26.3592 3.35937 26.4361C5.89346 27.9399 8.78987 28.7348 11.7442 28.7312C13.9254 28.7538 16.0893 28.3416 18.1095 27.5186C20.1296 26.6956 21.9655 25.4783 23.5099 23.9379C25.0543 22.3974 26.2763 20.5646 27.1045 18.5466C27.9327 16.5286 28.3504 14.3658 28.3334 12.1845V11.5048C28.3334 11.46 28.3545 11.418 28.3902 11.391C29.3511 10.6655 30.1962 9.79928 30.8972 8.82225Z" fill="#5D5D5D"/>
</svg>
