<svg width="66" height="67" viewBox="0 0 66 67" fill="none" xmlns="http://www.w3.org/2000/svg">
<g id="Iconly/Curved/Outline/Upload">
<g id="Group">
<path id="Vector" fillRule="evenodd" clipRule="evenodd" d="M12.2373 27.2071C13.82 25.0712 16.4075 24.0034 21.1713 23.5642C22.3056 23.4597 23.1404 22.4554 23.0358 21.3211C22.9312 20.1869 21.927 19.3521 20.7927 19.4567C15.7115 19.925 11.589 21.1535 8.92301 24.7513C6.36701 28.2006 5.49951 33.3975 5.49951 40.7605C5.49951 50.5225 7.03001 56.5245 12.0444 59.6046C14.4343 61.0727 17.3941 61.7215 20.7823 62.0367C24.1573 62.3507 28.2118 62.3507 32.9126 62.3507H33.0864C37.7872 62.3507 41.8417 62.3507 45.2167 62.0367C48.6049 61.7215 51.5648 61.0727 53.9547 59.6046C58.969 56.5245 60.4995 50.5225 60.4995 40.7605C60.4995 33.3975 59.632 28.2006 57.076 24.7513C54.41 21.1535 50.2875 19.925 45.2063 19.4567C44.0721 19.3521 43.0678 20.1869 42.9632 21.3211C42.8587 22.4554 43.6934 23.4597 44.8277 23.5642C49.5915 24.0034 52.179 25.0712 53.7618 27.2071C55.4545 29.4915 56.3745 33.4659 56.3745 40.7605C56.3745 50.5262 54.7288 54.2881 51.7956 56.0898C50.2118 57.0627 48.005 57.6345 44.8345 57.9294C41.6715 58.2237 37.8043 58.2257 32.9995 58.2257C28.1947 58.2257 24.3275 58.2237 21.1645 57.9294C17.994 57.6345 15.7873 57.0627 14.2034 56.0898C11.2703 54.2881 9.62451 50.5262 9.62451 40.7605C9.62451 33.4659 10.5445 29.4915 12.2373 27.2071Z" fill="#162120"/>
<path id="Vector_2" fillRule="evenodd" clipRule="evenodd" d="M33.332 41.7499C32.1929 41.7499 31.2695 40.8265 31.2695 39.6874L31.2695 6.57468C31.2695 5.4356 32.1929 4.51218 33.332 4.51218C34.4711 4.51218 35.3945 5.4356 35.3945 6.57468V39.6874C35.3945 40.8265 34.4711 41.7499 33.332 41.7499Z" fill="#162120"/>
<path id="Vector_3" fillRule="evenodd" clipRule="evenodd" d="M23.8576 16.0846C23.0505 15.2808 23.0478 13.9749 23.8516 13.1678L31.8706 5.11582C32.2576 4.72719 32.7835 4.50873 33.332 4.50873C33.8805 4.50873 34.4064 4.72719 34.7934 5.11582L42.8124 13.1678C43.6162 13.9749 43.6135 15.2808 42.8064 16.0846C41.9993 16.8884 40.6934 16.8857 39.8896 16.0786L33.332 9.49405L26.7744 16.0786C25.9706 16.8857 24.6647 16.8884 23.8576 16.0846Z" fill="#162120"/>
</g>
</g>
</svg>
