<svg width="34" height="34" viewBox="0 0 34 34" fill="none" xmlns="http://www.w3.org/2000/svg">
<g id="Solid/Brands/Whatsapp">
<path id="Subtract" d="M13.8649 10.5798L13.8652 10.5804C14.0498 10.9917 14.357 11.7399 14.6036 12.3403L14.607 12.3488C14.704 12.5849 14.7917 12.7986 14.8602 12.9631C14.8944 13.0454 14.9233 13.1141 14.9458 13.1664C14.957 13.1927 14.9662 13.2137 14.9734 13.2297C14.9812 13.2473 14.9844 13.2537 14.9841 13.2532M13.8649 10.5798L15.0147 14.3314C15.2298 13.8907 15.1111 13.5059 14.9841 13.2532M13.8649 10.5798C13.7039 10.2224 13.506 9.96525 13.2445 9.81365M13.8649 10.5798L13.2445 9.81365M14.9841 13.2532C14.9841 13.2532 14.9841 13.2531 14.9841 13.2531L14.5373 13.4776M14.9841 13.2532L14.5373 13.4776M24.8555 20.079C24.7573 19.9135 24.614 19.8101 24.5043 19.7431C24.3984 19.6784 24.272 19.6178 24.1569 19.5626L24.1427 19.5559L23.9265 20.0067L24.1427 19.5559C24.08 19.5258 24.0158 19.495 23.9475 19.461L23.9475 19.461C23.7631 19.3692 23.2215 19.1032 22.6837 18.8443C22.1603 18.5923 21.6003 18.3274 21.4048 18.2544L21.4047 18.2544C21.2474 18.1957 20.9939 18.1022 20.7246 18.1339C20.4028 18.1718 20.1668 18.365 19.9942 18.6265C19.7678 18.9601 19.095 19.7452 18.8748 20.0009L18.8747 20.0009C18.862 20.0156 18.8519 20.0258 18.8445 20.0326C18.8412 20.032 18.8374 20.0311 18.833 20.03C18.8026 20.0222 18.7549 20.0053 18.6844 19.9702C18.6127 19.9345 18.5213 19.8951 18.4303 19.8558L18.4201 19.8514L18.419 19.851C17.9227 19.6368 16.9654 19.2238 15.8579 18.2378L15.8571 18.237C14.8303 17.3271 14.1263 16.1885 13.9255 15.8423C13.9184 15.8301 13.9132 15.8199 13.9094 15.8117C13.91 15.811 13.9106 15.8103 13.9112 15.8096C13.932 15.7839 13.9596 15.7554 14.0069 15.7084L14.0071 15.7081C14.1271 15.5886 14.2597 15.4284 14.3727 15.2918L14.3827 15.2798C14.4521 15.1958 14.5168 15.1177 14.5779 15.0475L14.578 15.0474C14.783 14.812 14.8753 14.6204 14.9714 14.4208L14.9757 14.4121L14.9757 14.4121L15.0147 14.3315L21.7485 23.7938L21.7949 24.2916C22.2467 24.2495 22.866 23.9819 23.3893 23.6448C23.906 23.312 24.4732 22.8199 24.6854 22.2343L24.6866 22.2309C24.8516 21.7649 24.9359 21.329 24.9657 20.9801C24.9806 20.8062 24.9827 20.6464 24.9719 20.5102C24.9633 20.4007 24.9418 20.2244 24.8555 20.079ZM24.8555 20.079L24.4255 20.3341L24.8554 20.0789C24.8555 20.0789 24.8555 20.079 24.8555 20.079ZM14.5373 13.4776C14.4974 13.3981 14.3381 13.0102 14.1445 12.5388L14.1445 12.5387C13.8957 11.9329 13.5903 11.1891 13.409 10.7851C13.1356 10.1783 12.8483 10.1642 12.5891 10.1573L14.5373 13.4776ZM10.4847 10.3305L10.4847 10.3305L10.4847 10.3305ZM10.4847 10.3305C10.0792 10.759 9.13865 11.7569 9.13865 13.638C9.13865 14.6311 9.49537 15.5802 9.85677 16.2944C10.2216 17.0153 10.6132 17.5394 10.723 17.6863L10.7231 17.6864L10.4847 10.3305ZM13.2445 9.81365C12.9924 9.66752 12.7448 9.66114 12.614 9.65777M13.2445 9.81365L12.614 9.65777M12.614 9.65777C12.6106 9.65768 12.6072 9.6576 12.6039 9.65751M12.614 9.65777L12.6039 9.65751M12.6039 9.65751C12.3858 9.65034 12.1345 9.65035 11.8937 9.65035H11.8883C11.5286 9.65035 10.9941 9.78221 10.5476 10.2637L12.6039 9.65751ZM10.5496 28.7738C10.4381 28.7134 10.3078 28.6976 10.1851 28.7297L3.65806 30.4345C3.60838 30.4475 3.5633 30.4018 3.57694 30.3523L5.3203 24.0242C5.35591 23.8949 5.33812 23.7568 5.27093 23.6408C4.07913 21.583 3.45227 19.2495 3.45313 16.8746V16.8744C3.45313 9.41042 9.56218 3.33334 17.0601 3.33334C20.7053 3.33334 24.1176 4.74579 26.6868 7.303C29.2555 9.85972 30.6673 13.2617 30.6673 16.8814C30.6673 24.3452 24.5583 30.4223 17.0602 30.4223H17.0533C14.775 30.4223 12.5372 29.8504 10.5496 28.7738ZM10.7306 17.6965L10.7306 17.6965L10.7306 17.6965Z" fill="#5D5D5D" stroke="#5D5D5D" stroke-linejoin="round"/>
</g>
</svg>
